<svg width="27" height="22" viewBox="0 0 27 22" fill="none" xmlns="http://www.w3.org/2000/svg">
<path d="M24.072 5.57202C24.0889 5.80535 24.0889 6.03872 24.0889 6.27204C24.0889 13.3887 18.5898 21.5887 8.53895 21.5887C5.44248 21.5887 2.566 20.7054 0.146362 19.172C0.586309 19.222 1.00928 19.2387 1.46616 19.2387C4.02112 19.2387 6.37311 18.3887 8.2513 16.9387C5.84858 16.8887 3.83503 15.3387 3.14127 13.2054C3.47971 13.2554 3.8181 13.2887 4.17346 13.2887C4.66414 13.2887 5.15487 13.222 5.6117 13.1054C3.10747 12.6054 1.22923 10.4387 1.22923 7.82202V7.75538C1.95679 8.15538 2.80288 8.40537 3.6996 8.4387C2.22752 7.472 1.26308 5.82201 1.26308 3.95533C1.26308 2.95536 1.53376 2.03869 2.00756 1.23868C4.69795 4.50534 8.74196 6.63864 13.2766 6.87201C13.1921 6.47201 13.1413 6.05538 13.1413 5.63872C13.1413 2.67201 15.5778 0.255371 18.6066 0.255371C20.1802 0.255371 21.6016 0.905371 22.5998 1.95537C23.835 1.72205 25.0194 1.27202 26.0685 0.655371C25.6624 1.9054 24.7994 2.9554 23.6658 3.62202C24.7657 3.50541 25.8317 3.20534 26.813 2.78872C26.0686 3.85534 25.138 4.80531 24.072 5.57202Z" fill="black"/>
</svg>
